# xmcd
#
# Track frame offsets:
#	150
#	27080
#	43277
#	62447
#	79970
#	102777
#	126805
#	148347
#	172672
#	191055
#	208200
#	230955
#	252022
#
# Disc length: 3893 seconds
#
# Revision: 0
# Processed by: cddbd v1.4PL0 Copyright (c) Steve Scherf et al.
# Submitted via: EasyCDDAExtractor 5.0.5.1
#
DISCID=ba0f330d
DTITLE=Craig David - Slicker Than Your Average
DYEAR=2002
DGENRE=R&B
TTITLE0=Slicker Than Your Average
TTITLE1=What's Your Flava?
TTITLE2=Fast Cars
TTITLE3=Hidden Agenda
TTITLE4=Eenie Meenie
TTITLE5=You Don't Miss Your Water
TTITLE6=Rise and Fall
TTITLE7=Personal
TTITLE8=Hands Up In The Air
TTITLE9=2 Steps Back
TTITLE10=Spanish
TTITLE11=What's Changed
TTITLE12=World Filled With Love
EXTD=
EXTT0=
EXTT1=
EXTT2=
EXTT3=
EXTT4=
EXTT5=
EXTT6=
EXTT7=
EXTT8=
EXTT9=
EXTT10=
EXTT11=
EXTT12=
PLAYORDER=
